<?xml version="1.0" encoding="utf-8"?>
<!-- Generator: Adobe Illustrator 16.0.0, SVG Export Plug-In . SVG Version: 6.00 Build 0)  -->
<!DOCTYPE svg PUBLIC "-//W3C//DTD SVG 1.1//EN" "http://www.w3.org/Graphics/SVG/1.1/DTD/svg11.dtd">
<svg version="1.1" id="Layer_1" xmlns="http://www.w3.org/2000/svg" xmlns:xlink="http://www.w3.org/1999/xlink" x="0px" y="0px"
	 width="80.462px" height="79.663px" viewBox="0 0 80.462 79.663" enable-background="new 0 0 80.462 79.663" xml:space="preserve">
<rect x="222.391" y="-31.919" fill="#414042" width="1024" height="57.105"/>
<g>
	
		<line fill="none" stroke="#B9B9BA" stroke-width="15" stroke-linecap="round" stroke-miterlimit="10" x1="612.377" y1="484.551" x2="692.543" y2="385.551"/>
	
		<line fill="none" stroke="#B9B9BA" stroke-width="15" stroke-linecap="round" stroke-miterlimit="10" x1="1010.039" y1="484.551" x2="929.873" y2="385.551"/>
	
		<line fill="none" stroke="#B9B9BA" stroke-width="15" stroke-linecap="round" stroke-miterlimit="10" x1="680.692" y1="400.187" x2="938.376" y2="400.187"/>
	
		<line fill="none" stroke="#B9B9BA" stroke-width="15" stroke-linecap="round" stroke-miterlimit="10" x1="651.775" y1="436.551" x2="967.955" y2="436.551"/>
	
		<line fill="none" stroke="#B9B9BA" stroke-width="15" stroke-linecap="round" stroke-miterlimit="10" x1="619.665" y1="475.551" x2="1002.751" y2="475.551"/>
</g>
<rect x="222.391" y="-30.708" display="none" fill="#F5F5F5" width="1024" height="684.895"/>
<rect x="-83.609" y="5.29" display="none" fill="#5D5D5D" width="306" height="684.895"/>
<rect x="222.391" y="654.187" display="none" fill="#5D5D5D" width="796.076" height="174.071"/>
<g>
	<path fill-rule="evenodd" clip-rule="evenodd" fill="#518CAC" d="M825.381-142.276c-1.133,0-2.225,0-3.348,0c0,0.13,0,0.25,0,0.368
		c0,8.817-0.002,17.634,0.002,26.449c0,1.669-0.574,3.086-1.77,4.255c-0.455,0.445-0.992,0.745-1.598,0.923
		c-1.182,0.346-2.381,0.351-3.578,0.118c-1.697-0.328-2.705-1.464-3.371-2.969c-0.309-0.698-0.426-1.439-0.424-2.201
		c0.002-4.721-0.002-9.439,0.002-14.157c0.002-1.824-0.859-3.152-2.467-3.891c-2.83-1.301-5.709,0.994-5.703,3.579
		c0.012,4.775,0.004,9.55,0.004,14.325c0,0.16-0.006,0.32-0.014,0.48c-0.08,1.546-0.727,2.826-1.842,3.877
		c-0.564,0.534-1.27,0.809-2.016,0.956c-1.074,0.213-2.152,0.208-3.229-0.009c-1.646-0.328-2.648-1.418-3.338-2.861
		c-0.346-0.725-0.49-1.5-0.49-2.299c-0.004-6.255,0.008-12.509-0.012-18.764c-0.004-1.438-0.186-2.874-0.912-4.146
		c-1.057-1.85-2.525-3.261-4.637-3.833c-0.68-0.184-1.414-0.235-2.123-0.239c-1.23-0.005-2.465,0.037-3.691,0.132
		c-1.094,0.084-2.021,0.603-2.863,1.29c-1.254,1.021-2.322,2.174-2.838,3.753c-0.285,0.873-0.488,1.765-0.492,2.68
		c-0.029,6.385-0.045,12.77-0.059,19.154c-0.004,1.615-0.611,2.964-1.742,4.094c-0.49,0.489-1.09,0.798-1.758,0.972
		c-1.152,0.298-2.312,0.303-3.471,0.067c-1.594-0.326-2.578-1.401-3.291-2.775c-0.381-0.731-0.545-1.521-0.545-2.344
		c0-4.644-0.004-9.288,0.004-13.932c0-0.757,0.006-1.514-0.35-2.206c-1.346-2.612-4.723-3.154-6.742-0.914
		c-0.738,0.818-1.031,1.773-1.031,2.847c-0.002,8.815,0,17.632,0,26.448c0,0.074,0.008,0.148,0.012,0.244c1.123,0,2.236,0,3.383,0
		c0-0.133,0-0.261,0-0.39c0-7.677,0-15.354,0.004-23.03c0-0.167,0.012-0.343,0.064-0.499c0.094-0.275,0.398-0.426,0.713-0.386
		c0.281,0.035,0.414,0.182,0.459,0.52c0.018,0.129,0.018,0.262,0.018,0.394c0.002,4.86,0,9.721,0.004,14.581
		c0,1.143,0.117,2.272,0.434,3.378c0.504,1.771,1.639,3.078,3.033,4.213c1.084,0.885,2.328,1.308,3.697,1.337
		c1.289,0.028,2.578,0.012,3.865-0.036c1.232-0.046,2.326-0.496,3.279-1.284c1.047-0.861,2.023-1.778,2.596-3.045
		c0.443-0.982,0.668-2.018,0.732-3.084c0.053-0.883,0.059-1.768,0.061-2.651c0.004-5.595,0.004-11.189,0-16.784
		c0-1.359,0.422-2.562,1.25-3.638c0.77-1.001,1.783-1.532,3.021-1.676c0.922-0.107,1.84-0.103,2.752,0.092
		c1.656,0.353,2.627,1.494,3.334,2.923c0.344,0.692,0.482,1.44,0.48,2.217c0,5.962-0.012,11.924,0.012,17.887
		c0.004,0.945,0.1,1.902,0.266,2.832c0.305,1.708,1.17,3.118,2.469,4.271c0.828,0.735,1.652,1.49,2.768,1.731
		c0.732,0.156,1.488,0.257,2.234,0.267c1.213,0.018,2.428-0.022,3.637-0.109c1.172-0.083,2.172-0.615,3.078-1.351
		c1.234-1.008,2.254-2.16,2.721-3.726c0.33-1.103,0.441-2.233,0.443-3.375c0.004-4.955,0-9.91,0.002-14.864
		c0-0.16,0.006-0.32,0.029-0.479c0.049-0.353,0.264-0.541,0.605-0.546c0.348-0.006,0.594,0.199,0.645,0.546
		c0.018,0.12,0.016,0.244,0.016,0.365c0,4.805-0.004,9.609,0.002,14.412c0.002,1.074,0.076,2.145,0.33,3.194
		c0.402,1.649,1.316,2.955,2.561,4.099c1.303,1.194,2.785,1.831,4.541,1.831c1.176,0,2.352-0.004,3.527-0.048
		c1.357-0.054,2.521-0.591,3.557-1.469c1.129-0.959,2.098-2.024,2.576-3.464c0.363-1.092,0.504-2.223,0.506-3.363
		c0.012-10.343,0.012-20.685,0.016-31.025C825.381-142.111,825.381-142.184,825.381-142.276z"/>
	<path fill-rule="evenodd" clip-rule="evenodd" fill="#0A4B94" d="M796.946-142.278c-1.102,0-2.162,0-3.26,0c0,0.142,0,0.27,0,0.398
		c0,8.542,0.002,17.087,0,25.628c0,0.471-0.047,0.943-0.018,1.412c0.1,1.638,1.303,3.074,2.916,3.477
		c2.576,0.645,4.555-1.137,5.023-2.953c0.113-0.439,0.143-0.912,0.145-1.37c0.01-4.662,0.004-9.323,0.008-13.985
		c0-1.754,0.766-3.156,2.039-4.303c0.584-0.526,1.312-0.77,2.078-0.883c0.975-0.145,1.951-0.14,2.922,0.056
		c1.584,0.316,2.547,1.375,3.232,2.744c0.379,0.75,0.541,1.558,0.541,2.401c-0.004,4.634-0.006,9.268,0.004,13.901
		c0.002,0.477,0.039,0.965,0.145,1.428c0.338,1.494,1.84,2.845,3.33,3.054c2.693,0.379,4.754-1.814,4.75-4.07
		c-0.02-8.92-0.008-17.84-0.008-26.757c0-0.048-0.006-0.095-0.01-0.165c-1.154,0-2.305,0-3.49,0c0,0.115,0,0.233,0,0.353
		c0,7.742,0,15.485,0,23.227c0,0.504-0.117,0.7-0.467,0.792c-0.428,0.113-0.781-0.132-0.822-0.566
		c-0.01-0.104-0.004-0.209-0.004-0.312c0-4.916,0.004-9.833-0.002-14.749c-0.002-1.161-0.1-2.312-0.41-3.438
		c-0.451-1.646-1.508-2.846-2.787-3.908c-1.105-0.917-2.365-1.391-3.783-1.414c-1.326-0.021-2.652-0.011-3.977,0.044
		c-1.299,0.055-2.396,0.613-3.393,1.438c-1.371,1.134-2.422,2.463-2.875,4.218c-0.285,1.102-0.381,2.223-0.381,3.355
		c-0.004,4.842-0.002,9.683-0.002,14.523c0,0.498-0.154,0.72-0.564,0.814c-0.465,0.109-0.855-0.185-0.879-0.661
		c-0.004-0.085-0.002-0.17-0.002-0.255c0-7.704,0-15.408,0-23.113C796.946-142.03,796.946-142.141,796.946-142.278z"/>
	<path fill-rule="evenodd" clip-rule="evenodd" fill="#651C6B" d="M773.141-142.272c-1.092,0-2.154,0-3.262,0
		c0,0.111,0,0.229,0,0.347c0,7.705,0,15.41,0,23.114c0,0.132,0,0.266-0.021,0.395c-0.066,0.381-0.314,0.575-0.691,0.551
		c-0.373-0.024-0.576-0.229-0.6-0.615c-0.014-0.226-0.023-0.452-0.023-0.678c0-3.099-0.002-6.197,0-9.297
		c0.002-1.686,0.021-3.372,0.016-5.057c-0.004-1.057-0.082-2.106-0.33-3.139c-0.404-1.675-1.359-2.972-2.674-4.047
		c-0.85-0.695-1.75-1.28-2.855-1.448c-0.613-0.094-1.234-0.148-1.852-0.171c-1.289-0.046-2.58-0.05-3.859,0.153
		c-1.361,0.219-2.398,1.014-3.391,1.905c-1.51,1.354-2.305,3.059-2.541,5.046c-0.227,1.916-0.074,3.839-0.113,5.758
		c0,0.076,0.004,0.151,0.004,0.227c0.004,8.685,0.008,17.369,0.012,26.054c0,0.119,0,0.241,0,0.376c1.109,0,2.189,0,3.314,0
		c0-0.126,0-0.254,0-0.381c0-8.854-0.014-17.709,0.01-26.562c0.006-1.969,0.955-3.493,2.572-4.577
		c0.721-0.482,1.574-0.595,2.43-0.626c0.945-0.033,1.885,0,2.781,0.35c1.363,0.535,2.133,1.62,2.65,2.921
		c0.254,0.645,0.354,1.324,0.354,2.018c0,4.804,0,9.607,0,14.412c0.002,1.931,1.463,3.643,3.369,3.957
		c2.135,0.352,4.279-1.113,4.635-3.176c0.047-0.269,0.062-0.544,0.062-0.816c0.004-8.882,0.004-17.764,0.004-26.646
		C773.141-142.036,773.141-142.147,773.141-142.272z"/>
	<path fill-rule="evenodd" clip-rule="evenodd" fill="#BC1B40" d="M784.124-102.794c1.115,0,2.186,0,3.281,0
		c0.004-0.112,0.012-0.212,0.012-0.311c0.002-8.846,0.002-17.69,0-26.535c0-1.998-1.408-3.732-3.332-4.041
		c-2.691-0.434-4.762,1.749-4.756,3.989c0.029,8.478,0.012,16.955,0.012,25.432c0,0.479,0,0.959,0,1.457c1.119,0,2.215,0,3.346,0
		c0-0.133,0-0.262,0-0.391c0-7.62,0-15.241,0-22.86c0-0.132-0.004-0.265,0.006-0.396c0.027-0.41,0.268-0.656,0.652-0.681
		s0.691,0.218,0.752,0.613c0.025,0.157,0.027,0.318,0.027,0.479c0,7.619,0,15.239,0,22.859
		C784.124-103.058,784.124-102.938,784.124-102.794z"/>
</g>
<path fill="#A8ACAD" d="M375.302,353.211c4.204,7.698,12.372,12.925,21.759,12.925c9.39,0,17.551-5.227,21.762-12.925H375.302z"/>
<path fill="#FFE72D" d="M420.756,312.283c4.306,0,8.614-3.92,8.614-7.844c0-33.343,32.312-37.869,32.312-80.413
	c0-32.497-28.929-58.84-64.621-58.84c-35.684,0-64.618,26.343-64.618,58.84c0,42.544,32.31,47.07,32.31,80.413
	c0,3.924,4.308,7.844,8.618,7.844H420.756z"/>
<path fill="#A8ACAD" d="M425.062,324.132c0,2.96-2.42,5.386-5.383,5.386h-45.236c-2.958,0-5.383-2.426-5.383-5.386l0,0
	c0-2.961,2.425-5.384,5.383-5.384h45.236C422.642,318.748,425.062,321.171,425.062,324.132L425.062,324.132z"/>
<path fill="#A8ACAD" d="M425.062,341.365c0,2.961-2.42,5.383-5.383,5.383h-45.236c-2.958,0-5.383-2.422-5.383-5.383l0,0
	c0-2.963,2.425-5.387,5.383-5.387h45.236C422.642,335.979,425.062,338.402,425.062,341.365L425.062,341.365z"/>
<path fill="#A8ACAD" d="M271.781,165.383c1.043,1.911,3.07,3.208,5.399,3.208c2.33,0,4.355-1.297,5.4-3.208H271.781z"/>
<path fill="#FFE72D" d="M283.061,155.227c1.068,0,2.138-0.973,2.138-1.946c0-8.274,8.019-9.397,8.019-19.956
	c0-8.064-7.179-14.602-16.037-14.602c-8.855,0-16.036,6.537-16.036,14.602c0,10.558,8.018,11.681,8.018,19.956
	c0,0.974,1.069,1.946,2.139,1.946H283.061z"/>
<path fill="#A8ACAD" d="M284.129,158.167c0,0.735-0.601,1.336-1.336,1.336h-11.226c-0.734,0-1.336-0.602-1.336-1.336l0,0
	c0-0.735,0.602-1.336,1.336-1.336h11.226C283.528,156.831,284.129,157.432,284.129,158.167L284.129,158.167z"/>
<path fill="#A8ACAD" d="M284.129,162.444c0,0.735-0.601,1.336-1.336,1.336h-11.226c-0.734,0-1.336-0.601-1.336-1.336l0,0
	c0-0.735,0.602-1.337,1.336-1.337h11.226C283.528,161.107,284.129,161.708,284.129,162.444L284.129,162.444z"/>
<path fill="#A8ACAD" d="M233.781,165.383c1.043,1.911,3.07,3.208,5.399,3.208c2.33,0,4.355-1.297,5.4-3.208H233.781z"/>
<path fill="#EE3D8F" d="M245.061,155.227c1.068,0,2.138-0.973,2.138-1.946c0-8.274,8.019-9.397,8.019-19.956
	c0-8.064-7.179-14.602-16.037-14.602c-8.855,0-16.036,6.537-16.036,14.602c0,10.558,8.018,11.681,8.018,19.956
	c0,0.974,1.069,1.946,2.139,1.946H245.061z"/>
<path fill="#A8ACAD" d="M246.129,158.167c0,0.735-0.601,1.336-1.336,1.336h-11.226c-0.734,0-1.336-0.602-1.336-1.336l0,0
	c0-0.735,0.602-1.336,1.336-1.336h11.226C245.528,156.831,246.129,157.432,246.129,158.167L246.129,158.167z"/>
<path fill="#A8ACAD" d="M246.129,162.444c0,0.735-0.601,1.336-1.336,1.336h-11.226c-0.734,0-1.336-0.601-1.336-1.336l0,0
	c0-0.735,0.602-1.337,1.336-1.337h11.226C245.528,161.107,246.129,161.708,246.129,162.444L246.129,162.444z"/>
<g>
	<path stroke="#000000" stroke-miterlimit="10" d="M517.866-72.189h-19.026v-1.016h19.857c0.285,1.339,0.428,2.697,0.428,4.078
		c0,3.517-0.894,6.877-2.678,10.091c-1.785,3.211-4.287,5.709-7.505,7.493c-3.218,1.787-6.593,2.679-10.121,2.679
		c-3.504,0-6.864-0.892-10.082-2.679c-3.22-1.784-5.722-4.282-7.506-7.493c-1.784-3.214-2.677-6.574-2.677-10.091
		c0-3.543,0.906-6.941,2.719-10.192c1.811-3.254,4.332-5.752,7.564-7.494c3.232-1.746,6.56-2.619,9.981-2.619
		c3.406,0,6.726,0.873,9.958,2.619c1.664,0.891,3.145,1.986,4.441,3.285l-0.73,0.73c-1.216-1.232-2.617-2.281-4.196-3.145
		c-3.071-1.651-6.229-2.475-9.473-2.475c-3.245,0-6.404,0.827-9.474,2.483c-3.07,1.658-5.468,4.03-7.189,7.12
		c-1.725,3.09-2.586,6.318-2.586,9.687c0,3.342,0.847,6.533,2.544,9.583c1.698,3.05,4.073,5.422,7.131,7.12
		c3.055,1.695,6.247,2.546,9.574,2.546c3.353,0,6.556-0.851,9.613-2.546c3.057-1.698,5.433-4.07,7.129-7.12s2.548-6.241,2.548-9.583
		C518.111-70.153,518.029-71.176,517.866-72.189z"/>
	<path stroke="#000000" stroke-miterlimit="10" d="M514.561-68.642h-15.722v-0.508h16.228c0,2.827-0.713,5.526-2.141,8.096
		c-1.426,2.569-3.426,4.567-6.003,5.991c-2.576,1.429-5.271,2.141-8.084,2.141s-5.506-0.712-8.083-2.141
		c-2.574-1.424-4.578-3.422-6.002-5.991c-1.427-2.569-2.141-5.262-2.141-8.073c0-2.842,0.726-5.56,2.179-8.154
		s3.474-4.595,6.056-5.995c2.582-1.398,5.246-2.099,7.991-2.099c2.719,0,5.369,0.696,7.951,2.088c1.326,0.73,2.509,1.61,3.55,2.639
		l-0.363,0.365c-1.003-1.016-2.144-1.866-3.43-2.557c-2.502-1.352-5.071-2.029-7.708-2.029c-2.664,0-5.246,0.678-7.748,2.029
		s-4.456,3.291-5.862,5.811c-1.406,2.522-2.107,5.157-2.107,7.902c0,2.717,0.688,5.324,2.067,7.817
		c1.381,2.496,3.32,4.433,5.821,5.811c2.502,1.381,5.111,2.071,7.829,2.071c2.719,0,5.329-0.69,7.83-2.071
		c2.5-1.378,4.441-3.317,5.82-5.819C513.789-63.658,514.478-66.1,514.561-68.642z"/>
	<path stroke="#000000" stroke-miterlimit="10" d="M510.321-65.092h-11.481v-0.506h12.171c-0.217,0.839-0.601,1.757-1.155,2.76
		c-1.123,2.014-2.692,3.579-4.708,4.693c-2.015,1.117-4.116,1.674-6.308,1.674c-2.189,0-4.293-0.557-6.308-1.674
		c-2.015-1.114-3.579-2.678-4.695-4.685c-1.115-2.009-1.675-4.114-1.675-6.32c0-2.202,0.57-4.322,1.704-6.356
		c1.138-2.036,2.712-3.6,4.727-4.688c2.014-1.089,4.096-1.633,6.247-1.633c2.124,0,4.2,0.542,6.229,1.623
		c1.026,0.568,1.947,1.259,2.758,2.069l-0.365,0.365c-0.771-0.785-1.648-1.446-2.637-1.987c-1.947-1.041-3.941-1.562-5.984-1.562
		c-2.055,0-4.053,0.524-5.993,1.571c-1.939,1.048-3.455,2.545-4.544,4.492c-1.088,1.948-1.633,3.984-1.633,6.104
		c0,2.124,0.533,4.147,1.604,6.077c1.066,1.925,2.567,3.425,4.502,4.491c1.934,1.07,3.955,1.604,6.064,1.604
		c2.111,0,4.131-0.534,6.064-1.604c1.936-1.066,3.436-2.569,4.504-4.502C509.773-63.732,510.078-64.401,510.321-65.092z"/>
	<path fill="none" stroke="#000000" stroke-width="2" stroke-miterlimit="10" d="M543.613-89.603c3.41,0,6.728,0.871,9.96,2.615
		c3.23,1.746,5.764,4.244,7.597,7.496c1.83,3.253,2.747,6.651,2.747,10.192c0,3.517-0.892,6.879-2.678,10.091
		c-1.784,3.215-4.287,5.711-7.503,7.497c-3.218,1.784-6.593,2.677-10.123,2.677c-3.502,0-6.862-0.893-10.082-2.677
		c-3.218-1.786-5.718-4.282-7.504-7.497c-1.784-3.212-2.677-6.574-2.677-10.091c0-3.541,0.905-6.939,2.718-10.192
		c1.812-3.252,4.333-5.75,7.565-7.496C536.866-88.731,540.193-89.603,543.613-89.603z"/>
	<path fill="none" stroke="#000000" stroke-miterlimit="10" d="M543.633-85.545c2.717,0,5.369,0.7,7.951,2.101
		c2.584,1.396,4.607,3.398,6.073,5.993c1.471,2.597,2.203,5.314,2.203,8.154c0,2.812-0.715,5.504-2.141,8.073
		s-3.428,4.567-6.005,5.991c-2.574,1.429-5.269,2.141-8.082,2.141c-2.812,0-5.506-0.712-8.083-2.141
		c-2.576-1.424-4.578-3.422-6.004-5.991c-1.427-2.569-2.141-5.261-2.141-8.073c0-2.84,0.727-5.558,2.181-8.154
		c1.454-2.595,3.472-4.597,6.056-5.993C538.224-84.845,540.888-85.545,543.633-85.545z"/>
	<path fill="none" stroke="#000000" stroke-width="2" stroke-miterlimit="10" d="M535.466-83.749
		c-2.637,1.426-4.696,3.468-6.178,6.125c-1.482,2.66-2.223,5.437-2.223,8.327c0,2.867,0.726,5.611,2.179,8.241
		c1.456,2.632,3.501,4.671,6.136,6.123c2.638,1.457,5.388,2.185,8.255,2.185c2.863,0,5.613-0.728,8.25-2.185
		c2.638-1.452,4.683-3.491,6.136-6.123c1.454-2.63,2.181-5.374,2.181-8.241c0-2.891-0.748-5.667-2.244-8.327
		c-1.497-2.657-3.562-4.699-6.2-6.125c-2.637-1.423-5.345-2.139-8.122-2.139C540.827-85.888,538.103-85.172,535.466-83.749z"/>
	<path fill="none" stroke="#000000" stroke-width="2" stroke-miterlimit="10" d="M543.635-81.996c2.122,0,4.194,0.544,6.216,1.633
		c2.021,1.088,3.604,2.651,4.746,4.688c1.142,2.034,1.713,4.154,1.713,6.356c0,2.204-0.557,4.31-1.673,6.318
		c-1.115,2.009-2.681,3.57-4.694,4.687c-2.015,1.115-4.118,1.675-6.308,1.675c-2.191,0-4.294-0.56-6.31-1.675
		c-2.015-1.116-3.579-2.678-4.695-4.687c-1.115-2.009-1.675-4.114-1.675-6.318c0-2.202,0.568-4.322,1.704-6.356
		c1.136-2.036,2.71-3.6,4.727-4.688C539.402-81.452,541.484-81.996,543.635-81.996z"/>
	<path stroke="#000000" stroke-miterlimit="10" d="M608.165-72.189h-19.027v-1.016h19.859c0.283,1.339,0.426,2.697,0.426,4.078
		c0,3.517-0.893,6.877-2.679,10.091c-1.784,3.211-4.284,5.709-7.504,7.493c-3.22,1.787-6.593,2.679-10.122,2.679
		c-3.503,0-6.863-0.892-10.081-2.679c-3.218-1.784-5.719-4.282-7.505-7.493c-1.784-3.214-2.678-6.574-2.678-10.091
		c0-3.543,0.908-6.941,2.72-10.192c1.81-3.254,4.333-5.752,7.565-7.494c3.23-1.746,6.558-2.619,9.979-2.619
		c3.407,0,6.728,0.873,9.96,2.619c1.663,0.891,3.143,1.986,4.44,3.285l-0.729,0.73c-1.218-1.232-2.616-2.281-4.198-3.145
		c-3.071-1.651-6.229-2.475-9.474-2.475s-6.403,0.827-9.473,2.483c-3.067,1.658-5.466,4.03-7.189,7.12
		c-1.726,3.09-2.586,6.318-2.586,9.687c0,3.342,0.848,6.533,2.546,9.583c1.696,3.05,4.072,5.422,7.129,7.12
		c3.056,1.695,6.249,2.546,9.573,2.546c3.354,0,6.56-0.851,9.616-2.546c3.055-1.698,5.431-4.07,7.129-7.12
		c1.697-3.05,2.546-6.241,2.546-9.583C608.409-70.153,608.327-71.176,608.165-72.189z"/>
	<path stroke="#000000" stroke-miterlimit="10" d="M604.859-68.642h-15.722v-0.508h16.228c0,2.827-0.712,5.526-2.141,8.096
		c-1.424,2.569-3.426,4.567-6.002,5.991c-2.577,1.429-5.271,2.141-8.085,2.141c-2.812,0-5.506-0.712-8.082-2.141
		c-2.575-1.424-4.577-3.422-6.005-5.991c-1.426-2.569-2.139-5.262-2.139-8.073c0-2.842,0.726-5.56,2.181-8.154
		c1.454-2.595,3.47-4.595,6.054-5.995c2.582-1.398,5.247-2.099,7.991-2.099c2.72,0,5.371,0.696,7.951,2.088
		c1.328,0.73,2.509,1.61,3.552,2.639l-0.367,0.365c-0.998-1.016-2.142-1.866-3.426-2.557c-2.504-1.352-5.071-2.029-7.71-2.029
		c-2.664,0-5.246,0.678-7.746,2.029c-2.504,1.352-4.456,3.291-5.862,5.811c-1.408,2.522-2.109,5.157-2.109,7.902
		c0,2.717,0.688,5.324,2.067,7.817c1.379,2.496,3.32,4.433,5.822,5.811c2.5,1.381,5.112,2.071,7.828,2.071
		c2.72,0,5.329-0.69,7.831-2.071c2.502-1.378,4.441-3.317,5.821-5.819C604.088-63.658,604.777-66.1,604.859-68.642z"/>
	<path stroke="#000000" stroke-miterlimit="10" d="M600.621-65.092h-11.483v-0.506h12.172c-0.218,0.839-0.601,1.757-1.156,2.76
		c-1.123,2.014-2.691,3.579-4.706,4.693c-2.015,1.117-4.118,1.674-6.31,1.674c-2.189,0-4.291-0.557-6.308-1.674
		c-2.014-1.114-3.579-2.678-4.695-4.685c-1.115-2.009-1.674-4.114-1.674-6.32c0-2.202,0.567-4.322,1.705-6.356
		c1.137-2.036,2.71-3.6,4.725-4.688c2.015-1.089,4.098-1.633,6.247-1.633c2.124,0,4.2,0.542,6.229,1.623
		c1.026,0.568,1.946,1.259,2.757,2.069l-0.365,0.365c-0.772-0.785-1.648-1.446-2.637-1.987c-1.946-1.041-3.94-1.562-5.984-1.562
		c-2.054,0-4.052,0.524-5.991,1.571c-1.943,1.048-3.457,2.545-4.544,4.492c-1.09,1.948-1.634,3.984-1.634,6.104
		c0,2.124,0.535,4.147,1.604,6.077c1.066,1.925,2.567,3.425,4.501,4.491c1.934,1.07,3.955,1.604,6.064,1.604
		s4.131-0.534,6.065-1.604c1.934-1.066,3.435-2.569,4.503-4.502C600.073-63.732,600.375-64.401,600.621-65.092z"/>
	<path fill="none" stroke="#000000" stroke-width="2" stroke-miterlimit="10" d="M633.912-89.603c3.409,0,6.729,0.871,9.961,2.615
		c3.23,1.746,5.764,4.244,7.596,7.496c1.831,3.253,2.748,6.651,2.748,10.192c0,3.517-0.893,6.879-2.679,10.091
		c-1.784,3.215-4.286,5.711-7.502,7.497c-3.22,1.784-6.595,2.677-10.124,2.677c-3.503,0-6.863-0.893-10.081-2.677
		c-3.22-1.786-5.72-4.282-7.505-7.497c-1.784-3.212-2.676-6.574-2.676-10.091c0-3.541,0.904-6.939,2.718-10.192
		c1.812-3.252,4.331-5.75,7.563-7.496C627.164-88.731,630.491-89.603,633.912-89.603z"/>
	<path fill="none" stroke="#000000" stroke-width="2" stroke-miterlimit="10" d="M625.766-83.749
		c-2.639,1.426-4.696,3.468-6.18,6.125c-1.482,2.66-2.222,5.437-2.222,8.327c0,2.867,0.725,5.611,2.178,8.241
		c1.456,2.632,3.501,4.671,6.137,6.123c2.637,1.457,5.387,2.185,8.252,2.185s5.615-0.728,8.254-2.185
		c2.636-1.452,4.681-3.491,6.135-6.123c1.453-2.63,2.18-5.374,2.18-8.241c0-2.891-0.746-5.667-2.244-8.327
		c-1.497-2.657-3.562-4.699-6.199-6.125c-2.638-1.423-5.346-2.139-8.125-2.139C631.125-85.888,628.402-85.172,625.766-83.749z"/>
	<path fill="none" stroke="#000000" stroke-width="2" stroke-miterlimit="10" d="M633.931-81.996c2.124,0,4.195,0.544,6.218,1.633
		c2.022,1.088,3.605,2.651,4.747,4.688c1.141,2.034,1.713,4.154,1.713,6.356c0,2.204-0.558,4.31-1.673,6.318
		c-1.116,2.009-2.681,3.57-4.695,4.687c-2.015,1.115-4.118,1.675-6.31,1.675c-2.189,0-4.293-0.56-6.308-1.675
		c-2.014-1.116-3.579-2.678-4.696-4.687c-1.114-2.009-1.673-4.114-1.673-6.318c0-2.202,0.567-4.322,1.703-6.356
		c1.136-2.036,2.712-3.6,4.727-4.688C629.699-81.452,631.784-81.996,633.931-81.996z"/>
</g>
<g>
	<path fill="#651C6B" stroke="#651C6B" stroke-miterlimit="10" d="M1382.485,230.562h-51.806v-2.759h54.071
		c0.773,3.645,1.16,7.345,1.16,11.101c0,9.572-2.432,18.732-7.291,27.479c-4.861,8.742-11.672,15.545-20.436,20.406
		s-17.95,7.289-27.56,7.289c-9.538,0-18.688-2.428-27.451-7.289c-8.763-4.861-15.574-11.664-20.435-20.406
		c-4.86-8.746-7.29-17.906-7.29-27.479c0-9.648,2.467-18.898,7.4-27.754c4.934-8.854,11.801-15.658,20.602-20.408
		c8.8-4.751,17.857-7.125,27.174-7.125c9.278,0,18.317,2.374,27.118,7.125c4.528,2.429,8.561,5.413,12.096,8.947l-1.988,1.988
		c-3.314-3.35-7.125-6.204-11.434-8.561c-8.358-4.491-16.955-6.737-25.792-6.737s-17.437,2.256-25.793,6.765
		c-8.359,4.511-14.886,10.975-19.58,19.386c-4.694,8.417-7.041,17.207-7.041,26.374c0,9.097,2.309,17.795,6.932,26.098
		c4.62,8.301,11.092,14.765,19.414,19.386c8.319,4.621,17.01,6.932,26.068,6.932c9.131,0,17.856-2.311,26.179-6.932
		c8.321-4.621,14.793-11.085,19.414-19.386c4.62-8.303,6.932-17.001,6.932-26.098
		C1383.149,236.104,1382.927,233.326,1382.485,230.562z"/>
	<path fill="#518CAC" stroke="#518CAC" stroke-miterlimit="10" d="M1373.483,240.229h-42.804v-1.381h44.185
		c0,7.695-1.942,15.04-5.826,22.039c-3.885,6.994-9.334,12.434-16.349,16.319s-14.352,5.825-22.01,5.825
		c-7.659,0-14.995-1.939-22.009-5.825c-7.015-3.886-12.465-9.325-16.349-16.319c-3.885-6.999-5.827-14.324-5.827-21.984
		c0-7.731,1.978-15.131,5.937-22.201c3.959-7.07,9.453-12.513,16.487-16.323c7.032-3.812,14.286-5.717,21.761-5.717
		c7.401,0,14.618,1.897,21.651,5.688c3.607,1.99,6.828,4.385,9.664,7.182l-0.993,0.994c-2.726-2.761-5.837-5.082-9.335-6.959
		c-6.812-3.681-13.807-5.523-20.987-5.523c-7.255,0-14.286,1.842-21.099,5.523c-6.812,3.682-12.132,8.957-15.961,15.825
		c-3.83,6.869-5.744,14.037-5.744,21.512c0,7.4,1.878,14.497,5.633,21.291c3.757,6.794,9.04,12.068,15.852,15.824
		c6.812,3.755,13.918,5.633,21.319,5.633s14.507-1.878,21.319-5.633c6.812-3.756,12.096-9.038,15.852-15.852
		C1371.384,253.798,1373.262,247.153,1373.483,240.229z"/>
	<path fill="#BC1B40" stroke="#BC1B40" stroke-miterlimit="10" d="M1361.94,249.894h-31.261v-1.378h33.139
		c-0.589,2.282-1.639,4.786-3.147,7.511c-3.057,5.486-7.328,9.746-12.814,12.785c-5.486,3.038-11.212,4.558-17.177,4.558
		c-5.966,0-11.69-1.52-17.177-4.558c-5.486-3.039-9.748-7.291-12.786-12.758c-3.037-5.468-4.557-11.203-4.557-17.205
		c0-6.003,1.547-11.774,4.64-17.316c3.093-5.539,7.381-9.795,12.869-12.759c5.485-2.964,11.156-4.446,17.011-4.446
		c5.78,0,11.433,1.474,16.956,4.418c2.797,1.547,5.302,3.424,7.512,5.634l-0.994,0.996c-2.1-2.137-4.492-3.941-7.18-5.413
		c-5.303-2.836-10.734-4.253-16.294-4.253c-5.597,0-11.038,1.427-16.32,4.281c-5.284,2.855-9.408,6.933-12.372,12.235
		c-2.965,5.302-4.446,10.845-4.446,16.624c0,5.781,1.454,11.293,4.363,16.539c2.908,5.248,6.995,9.33,12.261,12.234
		c5.266,2.908,10.771,4.365,16.515,4.365c5.744,0,11.248-1.457,16.514-4.365c5.267-2.904,9.353-6.994,12.262-12.262
		C1360.448,253.593,1361.277,251.771,1361.94,249.894z"/>
	<path fill="none" stroke="#651C6B" stroke-width="2" stroke-miterlimit="10" d="M1452.594,183.153
		c9.278,0,18.317,2.374,27.119,7.125c8.8,4.751,15.694,11.553,20.683,20.41c4.99,8.854,7.483,18.108,7.483,27.751
		c0,9.577-2.429,18.732-7.29,27.479c-4.859,8.747-11.674,15.549-20.436,20.406c-8.763,4.861-17.95,7.294-27.56,7.294
		c-9.538,0-18.688-2.433-27.45-7.294c-8.763-4.857-15.575-11.659-20.436-20.406c-4.86-8.746-7.29-17.901-7.29-27.479
		c0-9.644,2.467-18.898,7.4-27.751c4.934-8.856,11.801-15.658,20.602-20.41C1434.22,185.526,1443.279,183.153,1452.594,183.153z"/>
	<path fill="none" d="M1452.648,194.202c7.402,0,14.617,1.905,21.65,5.716c7.033,3.81,12.547,9.254,16.541,16.325
		c3.996,7.069,5.994,14.47,5.994,22.2c0,7.66-1.943,14.986-5.828,21.984c-3.885,6.994-9.333,12.435-16.348,16.32
		c-7.014,3.885-14.352,5.824-22.01,5.824s-14.994-1.939-22.01-5.824c-7.014-3.886-12.464-9.326-16.348-16.32
		c-3.886-6.998-5.827-14.324-5.827-21.984c0-7.73,1.979-15.131,5.938-22.2c3.958-7.071,9.453-12.515,16.485-16.325
		C1437.919,196.107,1445.173,194.202,1452.648,194.202z"/>
	<path fill="none" stroke="#518CAC" stroke-width="2" stroke-miterlimit="10" d="M1430.412,199.091
		c-7.181,3.881-12.788,9.441-16.823,16.679c-4.037,7.242-6.055,14.796-6.055,22.672c0,7.806,1.979,15.281,5.938,22.441
		c3.959,7.16,9.527,12.721,16.706,16.678c7.181,3.959,14.67,5.939,22.473,5.939c7.801,0,15.288-1.98,22.47-5.939
		c7.179-3.957,12.749-9.518,16.706-16.678c3.959-7.16,5.938-14.636,5.938-22.441c0-7.876-2.037-15.43-6.111-22.672
		c-4.077-7.238-9.701-12.798-16.883-16.679c-7.18-3.877-14.553-5.82-22.119-5.82C1445.002,193.271,1437.59,195.213,1430.412,199.091
		z"/>
	<path fill="none" stroke="#BC1B40" stroke-width="2" stroke-miterlimit="10" d="M1452.65,203.866
		c5.779,0,11.422,1.479,16.928,4.444c5.504,2.964,9.812,7.22,12.924,12.762c3.11,5.539,4.667,11.313,4.667,17.312
		c0,6.002-1.52,11.738-4.556,17.205c-3.039,5.467-7.301,9.723-12.787,12.758c-5.486,3.039-11.212,4.559-17.176,4.559
		c-5.966,0-11.691-1.52-17.178-4.559c-5.486-3.035-9.748-7.291-12.786-12.758c-3.037-5.467-4.557-11.203-4.557-17.205
		c0-5.999,1.547-11.773,4.641-17.312c3.093-5.542,7.381-9.798,12.868-12.762C1441.125,205.345,1446.794,203.866,1452.65,203.866z"/>
	<path fill="#651C6B" stroke="#651C6B" stroke-miterlimit="10" d="M1628.361,230.562h-51.805v-2.759h54.07
		c0.773,3.645,1.158,7.345,1.158,11.101c0,9.572-2.428,18.732-7.289,27.479c-4.861,8.742-11.672,15.545-20.436,20.406
		s-17.951,7.289-27.561,7.289c-9.537,0-18.688-2.428-27.451-7.289c-8.762-4.861-15.574-11.664-20.436-20.406
		c-4.859-8.746-7.289-17.906-7.289-27.479c0-9.648,2.468-18.898,7.4-27.754c4.934-8.854,11.803-15.658,20.602-20.408
		c8.801-4.751,17.857-7.125,27.174-7.125c9.279,0,18.318,2.374,27.117,7.125c4.531,2.429,8.562,5.413,12.096,8.947l-1.986,1.988
		c-3.314-3.35-7.125-6.204-11.434-8.561c-8.359-4.491-16.955-6.737-25.793-6.737c-8.836,0-17.436,2.256-25.793,6.765
		c-8.357,4.511-14.884,10.975-19.578,19.386c-4.695,8.417-7.041,17.207-7.041,26.374c0,9.097,2.309,17.795,6.932,26.098
		c4.619,8.301,11.09,14.765,19.412,19.386c8.32,4.621,17.012,6.932,26.068,6.932c9.133,0,17.857-2.311,26.182-6.932
		c8.32-4.621,14.791-11.085,19.412-19.386c4.619-8.303,6.932-17.001,6.932-26.098
		C1629.025,236.104,1628.804,233.326,1628.361,230.562z"/>
	<path fill="#518CAC" stroke="#518CAC" stroke-miterlimit="10" d="M1619.359,240.229h-42.803v-1.381h44.184
		c0,7.695-1.941,15.04-5.826,22.039c-3.885,6.994-9.334,12.434-16.348,16.319c-7.016,3.886-14.352,5.825-22.01,5.825
		c-7.66,0-14.996-1.939-22.01-5.825c-7.016-3.886-12.465-9.325-16.35-16.319c-3.886-6.999-5.826-14.324-5.826-21.984
		c0-7.731,1.979-15.131,5.936-22.201c3.961-7.07,9.455-12.513,16.488-16.323c7.031-3.812,14.285-5.717,21.762-5.717
		c7.4,0,14.617,1.897,21.648,5.688c3.609,1.99,6.83,4.385,9.668,7.182l-0.996,0.994c-2.725-2.761-5.836-5.082-9.332-6.959
		c-6.814-3.681-13.809-5.523-20.988-5.523c-7.256,0-14.287,1.842-21.1,5.523c-6.812,3.682-12.131,8.957-15.961,15.825
		c-3.83,6.869-5.743,14.037-5.743,21.512c0,7.4,1.878,14.497,5.634,21.291c3.754,6.794,9.037,12.068,15.85,15.824
		c6.811,3.755,13.92,5.633,21.32,5.633s14.504-1.878,21.318-5.633c6.811-3.756,12.096-9.038,15.852-15.852
		C1617.261,253.798,1619.138,247.153,1619.359,240.229z"/>
	<path fill="#BC1B40" stroke="#BC1B40" stroke-miterlimit="10" d="M1607.818,249.894h-31.262v-1.378h33.139
		c-0.59,2.282-1.639,4.786-3.148,7.511c-3.057,5.486-7.328,9.746-12.812,12.785c-5.488,3.038-11.215,4.558-17.178,4.558
		c-5.967,0-11.691-1.52-17.178-4.558c-5.488-3.039-9.746-7.291-12.785-12.758c-3.039-5.468-4.559-11.203-4.559-17.205
		c0-6.003,1.547-11.774,4.641-17.316c3.094-5.539,7.381-9.795,12.867-12.759c5.488-2.964,11.158-4.446,17.014-4.446
		c5.779,0,11.432,1.474,16.955,4.418c2.797,1.547,5.303,3.424,7.512,5.634l-0.996,0.996c-2.098-2.137-4.49-3.941-7.18-5.413
		c-5.301-2.836-10.734-4.253-16.291-4.253c-5.598,0-11.037,1.427-16.32,4.281c-5.287,2.855-9.41,6.933-12.371,12.235
		c-2.967,5.302-4.449,10.845-4.449,16.624c0,5.781,1.455,11.293,4.365,16.539c2.908,5.248,6.996,9.33,12.26,12.234
		c5.266,2.908,10.771,4.365,16.516,4.365c5.742,0,11.248-1.457,16.512-4.365c5.268-2.904,9.354-6.994,12.262-12.262
		C1606.326,253.593,1607.152,251.771,1607.818,249.894z"/>
	<path fill="none" stroke="#651C6B" stroke-width="2" stroke-miterlimit="10" d="M1698.47,183.153
		c9.279,0,18.318,2.374,27.121,7.125c8.797,4.751,15.693,11.553,20.68,20.41c4.992,8.854,7.484,18.108,7.484,27.751
		c0,9.577-2.43,18.732-7.291,27.479c-4.857,8.747-11.672,15.549-20.434,20.406c-8.764,4.861-17.951,7.294-27.561,7.294
		c-9.539,0-18.686-2.433-27.451-7.294c-8.764-4.857-15.572-11.659-20.434-20.406c-4.861-8.746-7.291-17.901-7.291-27.479
		c0-9.644,2.467-18.898,7.4-27.751c4.934-8.856,11.801-15.658,20.602-20.41C1680.095,185.526,1689.154,183.153,1698.47,183.153z"/>
	<path fill="none" stroke="#518CAC" stroke-width="2" stroke-miterlimit="10" d="M1676.289,199.091
		c-7.182,3.881-12.789,9.441-16.824,16.679c-4.037,7.242-6.053,14.796-6.053,22.672c0,7.806,1.977,15.281,5.936,22.441
		s9.527,12.721,16.705,16.678c7.182,3.959,14.67,5.939,22.473,5.939c7.801,0,15.289-1.98,22.473-5.939
		c7.178-3.957,12.746-9.518,16.705-16.678c3.957-7.16,5.936-14.636,5.936-22.441c0-7.876-2.035-15.43-6.109-22.672
		c-4.078-7.238-9.703-12.798-16.883-16.679c-7.18-3.877-14.555-5.82-22.121-5.82
		C1690.878,193.271,1683.466,195.213,1676.289,199.091z"/>
	<path fill="none" stroke="#BC1B40" stroke-width="2" stroke-miterlimit="10" d="M1698.525,203.866
		c5.781,0,11.424,1.479,16.93,4.444c5.502,2.964,9.812,7.22,12.922,12.762c3.111,5.539,4.67,11.313,4.67,17.312
		c0,6.002-1.52,11.738-4.559,17.205s-7.299,9.723-12.785,12.758c-5.486,3.039-11.213,4.559-17.178,4.559
		c-5.963,0-11.691-1.52-17.176-4.559c-5.488-3.035-9.748-7.291-12.787-12.758c-3.037-5.467-4.557-11.203-4.557-17.205
		c0-5.999,1.547-11.773,4.639-17.312c3.094-5.542,7.383-9.798,12.869-12.762C1687,205.345,1692.671,203.866,1698.525,203.866z"/>
</g>
<path display="none" fill="#FFFFFF" d="M766.961,260.727c5.587,0,11.178-5.587,11.178-11.178c0-47.51,41.921-53.96,41.921-114.579
	c0-46.303-37.533-83.838-83.841-83.838c-46.298,0-83.836,37.536-83.836,83.838c0,60.619,41.92,67.069,41.92,114.579
	c0,5.591,5.587,11.178,11.179,11.178H766.961z"/>
<g>
	<path fill="#00AEEF" d="M939.192,338.211c0,8.25-6.75,15-15,15H697.673c-8.25,0-15-6.75-15-15v-23.979c0-8.25,6.75-15,15-15
		h226.519c8.25,0,15,6.75,15,15V338.211z"/>
</g>
<text transform="matrix(1 0 0 1 727.4282 333.0615)" fill="#FFFFFF" font-family="'HelveticaNeue-Bold'" font-size="24">set up an alert</text>
<text transform="matrix(1 0 0 1 949.0991 0)" fill="#FFFFFF" font-family="'HelveticaNeue'" font-size="16">sign in</text>
<text transform="matrix(1 0 0 1 484.481 5.2578)" fill="#FFFFFF" font-family="'HelveticaNeue-Bold'" font-size="26.4633">MUNI</text>
<text transform="matrix(1 0 0 1 1014.5396 0)" fill="#FFFFFF" font-family="'HelveticaNeue'" font-size="16">about </text>
<text transform="matrix(1 0 0 1 499.5942 263.3423)" fill="#231F20" font-family="'OpenSans-Bold'" font-size="48">Never miss the Muni again</text>
<circle fill="#00AEEF" cx="354.814" cy="63.739" r="17.781"/>
<circle fill="#EE3D8F" cx="396.856" cy="63.739" r="17.781"/>
<circle fill="#FBD32D" cx="438.485" cy="63.739" r="17.781"/>
<circle fill="#969799" cx="480.32" cy="63.739" r="17.781"/>
<circle fill="#00AEEF" cx="354.814" cy="111.073" r="17.781"/>
<g>
	<path fill="#FFFFFF" d="M357.271,118.253c-0.742,0.313-1.492,0.47-2.249,0.47c-1.194,0-2.267-0.208-3.22-0.622
		c-0.954-0.415-1.758-0.986-2.412-1.714c-0.655-0.728-1.157-1.583-1.507-2.565c-0.349-0.983-0.524-2.042-0.524-3.177
		c0-1.164,0.175-2.245,0.524-3.242c0.35-0.996,0.852-1.866,1.507-2.608c0.654-0.742,1.458-1.324,2.412-1.746
		c0.953-0.422,2.026-0.633,3.22-0.633c0.8,0,1.575,0.12,2.325,0.36c0.75,0.24,1.427,0.592,2.031,1.059
		c0.604,0.466,1.102,1.041,1.495,1.724c0.393,0.685,0.633,1.471,0.72,2.358h-3.274c-0.205-0.873-0.598-1.528-1.179-1.965
		c-0.583-0.437-1.288-0.654-2.118-0.654c-0.771,0-1.427,0.149-1.965,0.447c-0.538,0.299-0.975,0.698-1.31,1.201
		c-0.334,0.502-0.578,1.074-0.731,1.714c-0.153,0.641-0.229,1.302-0.229,1.986c0,0.655,0.077,1.292,0.229,1.91
		c0.153,0.619,0.396,1.175,0.731,1.67c0.335,0.495,0.772,0.891,1.31,1.19c0.538,0.298,1.193,0.447,1.965,0.447
		c1.136,0,2.012-0.287,2.631-0.862c0.618-0.575,0.979-1.408,1.081-2.5h-3.449v-2.554h6.549v8.426h-2.183l-0.35-1.768
		C358.69,117.392,358.013,117.941,357.271,118.253z"/>
</g>
<circle fill="#EE3D8F" cx="396.65" cy="111.073" r="17.781"/>
<g>
	<path fill="#FFFFFF" d="M389.51,107.403c0.35-0.996,0.852-1.866,1.507-2.608c0.654-0.742,1.458-1.324,2.412-1.746
		c0.953-0.422,2.026-0.633,3.22-0.633c1.208,0,2.284,0.211,3.23,0.633c0.946,0.422,1.747,1.004,2.401,1.746s1.157,1.612,1.507,2.608
		c0.349,0.997,0.524,2.079,0.524,3.242c0,1.135-0.175,2.194-0.524,3.177c-0.35,0.982-0.852,1.837-1.507,2.565
		c-0.655,0.728-1.455,1.299-2.401,1.714c-0.946,0.415-2.022,0.622-3.23,0.622c-1.194,0-2.267-0.208-3.22-0.622
		c-0.954-0.415-1.758-0.986-2.412-1.714c-0.655-0.728-1.157-1.583-1.507-2.565c-0.349-0.983-0.524-2.042-0.524-3.177
		C388.986,109.482,389.162,108.4,389.51,107.403z M392.644,112.556c0.152,0.619,0.396,1.175,0.731,1.67
		c0.334,0.495,0.771,0.891,1.31,1.19c0.539,0.298,1.193,0.447,1.965,0.447c0.771,0,1.426-0.149,1.965-0.447
		c0.538-0.299,0.975-0.695,1.31-1.19c0.335-0.495,0.579-1.051,0.731-1.67c0.152-0.618,0.229-1.255,0.229-1.91
		c0-0.684-0.077-1.346-0.229-1.986c-0.153-0.64-0.396-1.211-0.731-1.714s-0.771-0.902-1.31-1.201
		c-0.539-0.298-1.194-0.447-1.965-0.447c-0.772,0-1.427,0.149-1.965,0.447c-0.538,0.299-0.975,0.698-1.31,1.201
		c-0.335,0.502-0.579,1.074-0.731,1.714c-0.153,0.641-0.229,1.302-0.229,1.986C392.414,111.301,392.491,111.938,392.644,112.556z"/>
</g>
<circle fill="#FBD32D" cx="438.485" cy="111.073" r="17.781"/>
<g>
	<path fill="#FFFFFF" d="M440.941,118.253c-0.742,0.313-1.492,0.47-2.249,0.47c-1.194,0-2.267-0.208-3.22-0.622
		c-0.954-0.415-1.758-0.986-2.413-1.714c-0.655-0.728-1.157-1.583-1.506-2.565c-0.349-0.983-0.524-2.042-0.524-3.177
		c0-1.164,0.175-2.245,0.524-3.242c0.349-0.996,0.852-1.866,1.506-2.608c0.654-0.742,1.459-1.324,2.413-1.746
		c0.953-0.422,2.026-0.633,3.22-0.633c0.8,0,1.575,0.12,2.325,0.36c0.75,0.24,1.427,0.592,2.031,1.059
		c0.604,0.466,1.102,1.041,1.495,1.724c0.393,0.685,0.633,1.471,0.72,2.358h-3.274c-0.204-0.873-0.597-1.528-1.179-1.965
		c-0.583-0.437-1.288-0.654-2.118-0.654c-0.771,0-1.427,0.149-1.965,0.447c-0.538,0.299-0.976,0.698-1.31,1.201
		s-0.578,1.074-0.731,1.714c-0.153,0.641-0.229,1.302-0.229,1.986c0,0.655,0.077,1.292,0.229,1.91
		c0.153,0.619,0.396,1.175,0.731,1.67c0.334,0.495,0.772,0.891,1.31,1.19c0.538,0.298,1.193,0.447,1.965,0.447
		c1.136,0,2.012-0.287,2.631-0.862c0.618-0.575,0.979-1.408,1.081-2.5h-3.449v-2.554h6.549v8.426h-2.183l-0.35-1.768
		C442.36,117.392,441.683,117.941,440.941,118.253z"/>
</g>
<circle fill="#969799" cx="480.32" cy="111.073" r="17.781"/>
<g>
	<path fill="#FFFFFF" d="M473.457,107.403c0.35-0.996,0.853-1.866,1.507-2.608s1.459-1.324,2.412-1.746
		c0.953-0.422,2.026-0.633,3.22-0.633c1.208,0,2.285,0.211,3.231,0.633c0.946,0.422,1.747,1.004,2.401,1.746
		c0.655,0.742,1.158,1.612,1.507,2.608c0.349,0.997,0.524,2.079,0.524,3.242c0,1.135-0.175,2.194-0.524,3.177
		c-0.349,0.982-0.852,1.837-1.507,2.565c-0.654,0.728-1.456,1.299-2.401,1.714c-0.946,0.415-2.023,0.622-3.231,0.622
		c-1.193,0-2.267-0.208-3.22-0.622c-0.953-0.415-1.758-0.986-2.412-1.714c-0.654-0.728-1.157-1.583-1.507-2.565
		c-0.349-0.983-0.524-2.042-0.524-3.177C472.933,109.482,473.108,108.4,473.457,107.403z M476.59,112.556
		c0.153,0.619,0.396,1.175,0.732,1.67c0.334,0.495,0.771,0.891,1.31,1.19c0.538,0.298,1.193,0.447,1.964,0.447
		s1.427-0.149,1.966-0.447c0.538-0.299,0.975-0.695,1.31-1.19c0.334-0.495,0.579-1.051,0.73-1.67
		c0.153-0.618,0.229-1.255,0.229-1.91c0-0.684-0.076-1.346-0.229-1.986c-0.152-0.64-0.396-1.211-0.73-1.714
		c-0.335-0.502-0.772-0.902-1.31-1.201c-0.539-0.298-1.195-0.447-1.966-0.447s-1.427,0.149-1.964,0.447
		c-0.539,0.299-0.976,0.698-1.31,1.201c-0.335,0.502-0.579,1.074-0.732,1.714c-0.152,0.641-0.229,1.302-0.229,1.986
		C476.36,111.301,476.438,111.938,476.59,112.556z"/>
</g>
<g>
	<g>
		<path fill-rule="evenodd" clip-rule="evenodd" fill="#528BAB" d="M1613.756,752.257c-2.846,0-5.584,0-8.404,0
			c0,0.326,0,0.627,0,0.926c0,22.141-0.005,44.281,0.004,66.418c0.002,4.189-1.442,7.748-4.442,10.684
			c-1.144,1.119-2.494,1.871-4.013,2.316c-2.966,0.869-5.978,0.883-8.986,0.299c-4.261-0.824-6.794-3.678-8.465-7.457
			c-0.774-1.752-1.066-3.613-1.065-5.527c0.006-11.854-0.004-23.703,0.007-35.551c0.003-4.582-2.158-7.916-6.196-9.77
			c-7.105-3.266-14.335,2.498-14.319,8.986c0.03,11.992,0.008,23.982,0.006,35.975c0,0.4-0.012,0.805-0.032,1.205
			c-0.198,3.883-1.824,7.098-4.623,9.738c-1.419,1.34-3.188,2.029-5.065,2.4c-2.695,0.533-5.403,0.52-8.103-0.021
			c-4.14-0.826-6.652-3.561-8.382-7.188c-0.868-1.82-1.235-3.766-1.236-5.771c-0.008-15.707,0.021-31.412-0.028-47.119
			c-0.011-3.609-0.465-7.217-2.289-10.41c-2.652-4.645-6.344-8.189-11.642-9.625c-1.709-0.463-3.552-0.59-5.334-0.6
			c-3.09-0.014-6.189,0.092-9.271,0.328c-2.743,0.211-5.072,1.514-7.189,3.24c-3.146,2.566-5.829,5.459-7.124,9.424
			c-0.718,2.191-1.226,4.432-1.235,6.729c-0.074,16.035-0.113,32.068-0.146,48.102c-0.01,4.057-1.537,7.443-4.375,10.279
			c-1.234,1.23-2.736,2.004-4.418,2.441c-2.893,0.748-5.808,0.76-8.715,0.168c-4.002-0.82-6.475-3.518-8.266-6.971
			c-0.951-1.836-1.367-3.816-1.367-5.883c0.001-11.662-0.008-23.324,0.009-34.984c0.003-1.902,0.017-3.803-0.878-5.541
			c-3.377-6.559-11.854-7.922-16.93-2.297c-1.855,2.057-2.589,4.455-2.589,7.148c-0.002,22.139-0.001,44.277,0,66.418
			c0,0.186,0.017,0.373,0.028,0.613c2.82,0,5.616,0,8.498,0c0-0.336,0-0.656,0-0.98c0-19.275-0.001-38.555,0.007-57.832
			c0-0.418,0.03-0.859,0.164-1.252c0.237-0.693,1.001-1.07,1.79-0.969c0.704,0.088,1.041,0.455,1.152,1.303
			c0.043,0.326,0.045,0.658,0.045,0.988c0.002,12.207-0.003,24.412,0.006,36.617c0.002,2.869,0.298,5.705,1.089,8.48
			c1.269,4.451,4.119,7.73,7.62,10.582c2.724,2.221,5.844,3.281,9.287,3.357c3.233,0.07,6.474,0.029,9.705-0.092
			c3.092-0.115,5.839-1.246,8.235-3.225c2.626-2.164,5.08-4.467,6.516-7.648c1.112-2.465,1.677-5.064,1.837-7.742
			c0.133-2.217,0.15-4.439,0.152-6.66c0.012-14.049,0.012-28.098,0.002-42.146c0-3.414,1.061-6.432,3.141-9.135
			c1.932-2.512,4.477-3.848,7.585-4.207c2.317-0.27,4.624-0.258,6.913,0.229c4.156,0.887,6.594,3.754,8.371,7.34
			c0.862,1.74,1.21,3.619,1.209,5.566c-0.003,14.973-0.03,29.943,0.029,44.918c0.008,2.373,0.247,4.777,0.664,7.111
			c0.769,4.289,2.939,7.83,6.2,10.727c2.08,1.848,4.146,3.742,6.952,4.348c1.835,0.395,3.734,0.645,5.61,0.67
			c3.042,0.043,6.095-0.057,9.131-0.273c2.941-0.211,5.455-1.545,7.729-3.395c3.102-2.527,5.659-5.424,6.834-9.354
			c0.828-2.77,1.107-5.607,1.109-8.477c0.011-12.443,0.003-24.885,0.008-37.324c0-0.402,0.013-0.805,0.069-1.201
			c0.127-0.887,0.668-1.359,1.524-1.373c0.872-0.014,1.488,0.5,1.617,1.371c0.046,0.301,0.038,0.613,0.038,0.918
			c0.002,12.064-0.008,24.129,0.008,36.189c0.002,2.699,0.188,5.385,0.83,8.023c1.009,4.143,3.302,7.42,6.427,10.291
			c3.271,3,6.993,4.6,11.405,4.598c2.951,0,5.905-0.008,8.854-0.121c3.409-0.133,6.337-1.48,8.933-3.686
			c2.837-2.41,5.267-5.084,6.468-8.699c0.914-2.742,1.27-5.58,1.273-8.445c0.03-25.973,0.03-51.941,0.038-77.912
			C1613.756,752.671,1613.756,752.487,1613.756,752.257z"/>
		<path fill-rule="evenodd" clip-rule="evenodd" fill="#104C93" d="M1542.354,752.251c-2.768,0-5.433,0-8.188,0
			c0,0.355,0,0.678,0,1.002c0,21.451,0.002,42.906-0.002,64.357c0,1.18-0.115,2.365-0.043,3.543
			c0.251,4.113,3.271,7.721,7.319,8.732c6.474,1.617,11.439-2.855,12.617-7.416c0.285-1.105,0.36-2.291,0.362-3.441
			c0.024-11.707,0.011-23.414,0.019-35.121c0.004-4.402,1.925-7.926,5.123-10.803c1.468-1.322,3.294-1.934,5.216-2.219
			c2.448-0.363,4.9-0.348,7.338,0.141c3.978,0.795,6.396,3.455,8.12,6.891c0.948,1.883,1.357,3.912,1.356,6.031
			c-0.008,11.635-0.015,23.271,0.011,34.908c0.004,1.197,0.098,2.422,0.361,3.586c0.849,3.752,4.623,7.143,8.362,7.668
			c6.767,0.949,11.94-4.555,11.93-10.221c-0.048-22.4-0.02-44.799-0.02-67.193c0-0.117-0.013-0.236-0.023-0.412
			c-2.899,0-5.79,0-8.769,0c0,0.289,0,0.586,0,0.885c0,19.441,0,38.885,0,58.326c0,1.266-0.29,1.756-1.171,1.988
			c-1.07,0.285-1.963-0.33-2.062-1.424c-0.024-0.26-0.01-0.523-0.01-0.783c-0.001-12.344,0.009-24.691-0.008-37.037
			c-0.004-2.914-0.249-5.805-1.026-8.635c-1.136-4.133-3.789-7.146-7.002-9.814c-2.774-2.303-5.938-3.492-9.5-3.551
			c-3.328-0.055-6.661-0.027-9.986,0.111c-3.259,0.135-6.019,1.539-8.521,3.609c-3.442,2.846-6.08,6.184-7.219,10.59
			c-0.716,2.768-0.954,5.584-0.956,8.428c-0.009,12.158-0.004,24.314-0.004,36.471c-0.001,1.252-0.389,1.807-1.42,2.047
			c-1.163,0.273-2.146-0.465-2.203-1.662c-0.01-0.213-0.003-0.426-0.003-0.641c0-19.346,0-38.691,0-58.041
			C1542.354,752.874,1542.354,752.595,1542.354,752.251z"/>
		<path fill-rule="evenodd" clip-rule="evenodd" fill="#64256C" d="M1482.571,752.267c-2.74,0-5.406,0-8.187,0
			c0,0.279,0,0.574,0,0.871c0,19.348,0,38.695-0.002,58.043c0,0.332,0,0.666-0.056,0.99c-0.165,0.957-0.787,1.443-1.734,1.385
			c-0.936-0.061-1.445-0.576-1.506-1.547c-0.035-0.566-0.056-1.135-0.056-1.701c-0.005-7.781-0.008-15.562-0.001-23.346
			c0.004-4.232,0.054-8.469,0.037-12.699c-0.011-2.652-0.207-5.287-0.83-7.881c-1.013-4.205-3.412-7.463-6.715-10.162
			c-2.134-1.746-4.395-3.215-7.17-3.637c-1.537-0.234-3.097-0.373-4.65-0.43c-3.236-0.115-6.478-0.125-9.689,0.387
			c-3.42,0.547-6.023,2.543-8.516,4.783c-3.791,3.402-5.787,7.682-6.379,12.672c-0.57,4.811-0.188,9.641-0.283,14.457
			c-0.004,0.191,0.005,0.381,0.005,0.57c0.01,21.809,0.021,43.615,0.03,65.424c0,0.301,0,0.605,0,0.945c2.787,0,5.498,0,8.323,0
			c0-0.316,0-0.637,0-0.957c0-22.232-0.034-44.469,0.026-66.701c0.014-4.943,2.398-8.77,6.461-11.492
			c1.807-1.213,3.953-1.494,6.101-1.572c2.374-0.084,4.734,0,6.981,0.879c3.425,1.342,5.357,4.066,6.654,7.334
			c0.641,1.617,0.891,3.326,0.891,5.066c0.002,12.062-0.002,24.125,0.002,36.189c0.002,4.85,3.674,9.15,8.459,9.938
			c5.361,0.883,10.746-2.797,11.641-7.975c0.115-0.674,0.156-1.367,0.157-2.049c0.007-22.305,0.005-44.609,0.005-66.914
			C1482.571,752.858,1482.571,752.581,1482.571,752.267z"/>
		<path fill-rule="evenodd" clip-rule="evenodd" fill="#BB1F41" d="M1510.153,851.401c2.801,0,5.489,0,8.236,0
			c0.014-0.281,0.035-0.531,0.035-0.781c0.002-22.213,0.003-44.422,0-66.633c-0.002-5.018-3.538-9.373-8.371-10.148
			c-6.755-1.088-11.959,4.393-11.941,10.02c0.072,21.289,0.029,42.576,0.029,63.863c0,1.203,0,2.406,0,3.658
			c2.812,0,5.562,0,8.402,0c0-0.336,0-0.658,0-0.982c0-19.135,0-38.271,0-57.406c0-0.332-0.011-0.664,0.013-0.992
			c0.069-1.029,0.672-1.648,1.64-1.711c0.965-0.061,1.733,0.549,1.889,1.541c0.062,0.395,0.066,0.801,0.066,1.203
			c0.002,19.135,0.002,38.27,0.002,57.404C1510.153,850.739,1510.153,851.04,1510.153,851.401z"/>
	</g>
	<path fill="#A7ABAC" d="M1494.856,671.651c4.887,8.947,14.379,15.02,25.287,15.02c10.913,0,20.397-6.072,25.292-15.02H1494.856z"/>
	<path fill="#DF9826" d="M1547.681,624.089c5.004,0,10.012-5.004,10.012-10.012c0-42.557,37.551-48.334,37.551-102.633
		c0-41.477-33.621-75.099-75.101-75.099c-41.471,0-75.096,33.622-75.096,75.099c0,54.299,37.549,60.076,37.549,102.633
		c0,5.008,5.006,10.012,10.016,10.012H1547.681z"/>
	<path fill="#A7ABAC" d="M1552.685,637.858c0,3.438-2.812,6.26-6.256,6.26h-52.571c-3.438,0-6.256-2.822-6.256-6.26l0,0
		c0-3.441,2.817-6.256,6.256-6.256h52.571C1549.873,631.603,1552.685,634.417,1552.685,637.858L1552.685,637.858z"/>
	<path fill="#A7ABAC" d="M1552.685,657.886c0,3.441-2.812,6.256-6.256,6.256h-52.571c-3.438,0-6.256-2.814-6.256-6.256l0,0
		c0-3.443,2.817-6.26,6.256-6.26h52.571C1549.873,651.626,1552.685,654.442,1552.685,657.886L1552.685,657.886z"/>
	<path stroke="#000000" stroke-miterlimit="10" d="M1467.866,719.843h-20.552v-1.096h21.45c0.307,1.445,0.46,2.914,0.46,4.404
		c0,3.799-0.964,7.43-2.892,10.9c-1.929,3.469-4.631,6.166-8.107,8.094c-3.476,1.932-7.12,2.895-10.932,2.895
		c-3.785,0-7.414-0.963-10.891-2.895c-3.477-1.928-6.18-4.625-8.107-8.094c-1.928-3.471-2.892-7.102-2.892-10.9
		c0-3.826,0.979-7.498,2.937-11.01c1.956-3.514,4.681-6.213,8.172-8.096c3.49-1.885,7.084-2.826,10.781-2.826
		c3.68,0,7.266,0.941,10.757,2.826c1.797,0.963,3.396,2.146,4.798,3.549l-0.789,0.789c-1.314-1.33-2.826-2.461-4.534-3.396
		c-3.316-1.781-6.728-2.672-10.231-2.672c-3.506,0-6.918,0.895-10.233,2.682c-3.316,1.791-5.905,4.354-7.767,7.691
		c-1.862,3.338-2.793,6.826-2.793,10.463c0,3.609,0.915,7.059,2.748,10.352c1.834,3.295,4.4,5.857,7.703,7.691
		c3.301,1.832,6.748,2.75,10.342,2.75c3.621,0,7.082-0.918,10.385-2.75c3.301-1.834,5.867-4.396,7.701-7.691
		c1.832-3.293,2.75-6.742,2.75-10.352C1468.129,722.042,1468.041,720.938,1467.866,719.843z"/>
	<path stroke="#000000" stroke-miterlimit="10" d="M1464.295,723.677h-16.981v-0.549h17.528c0,3.053-0.77,5.969-2.312,8.744
		c-1.541,2.775-3.702,4.934-6.485,6.473c-2.782,1.543-5.693,2.312-8.731,2.312s-5.948-0.77-8.731-2.312
		c-2.781-1.539-4.944-3.697-6.484-6.473c-1.541-2.775-2.312-5.684-2.312-8.721c0-3.068,0.784-6.004,2.354-8.807
		c1.57-2.805,3.75-4.965,6.541-6.477c2.789-1.512,5.667-2.268,8.632-2.268c2.937,0,5.8,0.754,8.589,2.256
		c1.432,0.789,2.709,1.74,3.834,2.85l-0.393,0.395c-1.082-1.096-2.316-2.016-3.705-2.762c-2.701-1.459-5.477-2.189-8.325-2.189
		c-2.878,0-5.667,0.73-8.37,2.189c-2.702,1.461-4.812,3.555-6.332,6.277c-1.519,2.725-2.277,5.57-2.277,8.535
		c0,2.936,0.744,5.752,2.234,8.445c1.49,2.695,3.586,4.787,6.288,6.277s5.521,2.236,8.457,2.236s5.755-0.746,8.458-2.236
		c2.701-1.49,4.798-3.586,6.287-6.287C1463.461,729.06,1464.207,726.423,1464.295,723.677z"/>
	<path stroke="#000000" stroke-miterlimit="10" d="M1459.715,727.511h-12.401v-0.547h13.147c-0.235,0.906-0.65,1.898-1.25,2.98
		c-1.212,2.176-2.906,3.867-5.084,5.07c-2.176,1.207-4.447,1.809-6.813,1.809s-4.638-0.602-6.814-1.809
		c-2.176-1.203-3.866-2.893-5.071-5.061s-1.808-4.443-1.808-6.826c0-2.379,0.614-4.67,1.84-6.867
		c1.228-2.199,2.929-3.887,5.105-5.062c2.176-1.176,4.425-1.764,6.748-1.764c2.294,0,4.536,0.586,6.728,1.754
		c1.109,0.613,2.103,1.357,2.979,2.234l-0.395,0.395c-0.832-0.848-1.781-1.562-2.848-2.146c-2.104-1.125-4.258-1.688-6.464-1.688
		c-2.22,0-4.378,0.566-6.474,1.697c-2.097,1.133-3.732,2.75-4.908,4.854c-1.177,2.104-1.764,4.303-1.764,6.594
		c0,2.295,0.576,4.48,1.73,6.564c1.153,2.08,2.775,3.699,4.864,4.852c2.089,1.154,4.272,1.732,6.551,1.732
		c2.279,0,4.462-0.578,6.551-1.732c2.09-1.152,3.71-2.775,4.864-4.863C1459.124,728.979,1459.453,728.257,1459.715,727.511z"/>
	<path fill="none" stroke="#000000" stroke-width="2" stroke-miterlimit="10" d="M1495.678,701.034
		c3.682,0,7.266,0.941,10.758,2.826c3.49,1.885,6.226,4.584,8.205,8.098c1.979,3.512,2.969,7.184,2.969,11.008
		c0,3.799-0.963,7.432-2.893,10.9c-1.927,3.473-4.631,6.168-8.106,8.098c-3.476,1.928-7.12,2.893-10.933,2.893
		c-3.784,0-7.413-0.965-10.891-2.893c-3.476-1.93-6.178-4.625-8.105-8.098c-1.929-3.469-2.893-7.102-2.893-10.9
		c0-3.824,0.979-7.496,2.936-11.008c1.958-3.514,4.682-6.213,8.173-8.098S1491.983,701.034,1495.678,701.034z"/>
	<path fill="none" stroke="#000000" stroke-miterlimit="10" d="M1495.7,705.419c2.936,0,5.799,0.756,8.589,2.268
		c2.79,1.51,4.977,3.67,6.561,6.475c1.587,2.805,2.378,5.74,2.378,8.807c0,3.039-0.771,5.945-2.312,8.721
		c-1.54,2.775-3.702,4.934-6.485,6.473c-2.781,1.543-5.691,2.312-8.73,2.312s-5.948-0.77-8.731-2.312
		c-2.782-1.539-4.944-3.697-6.485-6.473s-2.312-5.682-2.312-8.721c0-3.066,0.786-6.002,2.355-8.807
		c1.57-2.805,3.751-4.965,6.541-6.475C1489.857,706.175,1492.735,705.419,1495.7,705.419z"/>
	<path fill="none" stroke="#000000" stroke-width="2" stroke-miterlimit="10" d="M1486.877,707.356
		c-2.848,1.541-5.072,3.746-6.673,6.617c-1.602,2.873-2.401,5.871-2.401,8.994c0,3.098,0.784,6.062,2.354,8.902
		c1.571,2.842,3.78,5.047,6.628,6.615c2.848,1.572,5.819,2.357,8.915,2.357c3.094,0,6.063-0.785,8.913-2.357
		c2.848-1.568,5.057-3.773,6.628-6.615c1.569-2.84,2.355-5.805,2.355-8.902c0-3.123-0.809-6.121-2.425-8.994
		c-1.617-2.871-3.849-5.076-6.697-6.617c-2.848-1.537-5.773-2.309-8.774-2.309C1492.667,705.048,1489.726,705.819,1486.877,707.356z
		"/>
	<path fill="none" stroke="#000000" stroke-width="2" stroke-miterlimit="10" d="M1495.701,709.251c2.292,0,4.531,0.588,6.715,1.764
		s3.893,2.863,5.128,5.062c1.232,2.197,1.85,4.488,1.85,6.867c0,2.381-0.602,4.656-1.807,6.826
		c-1.205,2.168-2.896,3.855-5.072,5.061c-2.176,1.205-4.448,1.809-6.813,1.809c-2.366,0-4.638-0.604-6.814-1.809
		s-3.866-2.893-5.072-5.061c-1.205-2.17-1.808-4.445-1.808-6.826c0-2.379,0.613-4.67,1.84-6.867
		c1.227-2.199,2.928-3.887,5.105-5.062C1491.128,709.839,1493.377,709.251,1495.701,709.251z"/>
	<path stroke="#000000" stroke-miterlimit="10" d="M1565.405,719.843h-20.552v-1.096h21.451c0.306,1.445,0.459,2.914,0.459,4.404
		c0,3.799-0.963,7.43-2.893,10.9c-1.928,3.469-4.629,6.166-8.106,8.094c-3.477,1.932-7.121,2.895-10.933,2.895
		c-3.784,0-7.413-0.963-10.89-2.895c-3.477-1.928-6.179-4.625-8.106-8.094c-1.929-3.471-2.893-7.102-2.893-10.9
		c0-3.826,0.979-7.498,2.937-11.01c1.956-3.514,4.682-6.213,8.173-8.096c3.49-1.885,7.084-2.826,10.779-2.826
		c3.681,0,7.267,0.941,10.757,2.826c1.798,0.963,3.396,2.146,4.799,3.549l-0.788,0.789c-1.314-1.33-2.826-2.461-4.535-3.396
		c-3.316-1.781-6.728-2.672-10.232-2.672c-3.506,0-6.917,0.895-10.232,2.682c-3.314,1.791-5.904,4.354-7.766,7.691
		c-1.864,3.338-2.794,6.826-2.794,10.463c0,3.609,0.915,7.059,2.75,10.352c1.832,3.295,4.398,5.857,7.7,7.691
		c3.301,1.832,6.75,2.75,10.342,2.75c3.623,0,7.084-0.918,10.387-2.75c3.301-1.834,5.867-4.396,7.701-7.691
		c1.832-3.293,2.75-6.742,2.75-10.352C1565.669,722.042,1565.581,720.938,1565.405,719.843z"/>
	<path stroke="#000000" stroke-miterlimit="10" d="M1561.833,723.677h-16.98v-0.549h17.528c0,3.053-0.77,5.969-2.312,8.744
		c-1.54,2.775-3.702,4.934-6.484,6.473c-2.783,1.543-5.693,2.312-8.732,2.312c-3.038,0-5.948-0.77-8.73-2.312
		c-2.782-1.539-4.944-3.697-6.486-6.473c-1.54-2.775-2.311-5.684-2.311-8.721c0-3.068,0.784-6.004,2.354-8.807
		c1.571-2.805,3.75-4.965,6.54-6.477s5.668-2.268,8.633-2.268c2.937,0,5.8,0.754,8.589,2.256c1.433,0.789,2.709,1.74,3.835,2.85
		l-0.396,0.395c-1.079-1.096-2.314-2.016-3.701-2.762c-2.704-1.459-5.478-2.189-8.327-2.189c-2.878,0-5.667,0.73-8.369,2.189
		c-2.703,1.461-4.812,3.555-6.332,6.277c-1.52,2.725-2.278,5.57-2.278,8.535c0,2.936,0.744,5.752,2.234,8.445
		c1.489,2.695,3.585,4.787,6.288,6.277c2.701,1.49,5.522,2.236,8.457,2.236c2.937,0,5.756-0.746,8.458-2.236
		s4.798-3.586,6.288-6.287C1561.001,729.06,1561.746,726.423,1561.833,723.677z"/>
	<path stroke="#000000" stroke-miterlimit="10" d="M1557.255,727.511h-12.402v-0.547H1558c-0.234,0.906-0.649,1.898-1.249,2.98
		c-1.213,2.176-2.906,3.867-5.082,5.07c-2.177,1.207-4.449,1.809-6.815,1.809s-4.637-0.602-6.814-1.809
		c-2.176-1.203-3.865-2.893-5.071-5.061c-1.205-2.168-1.809-4.443-1.809-6.826c0-2.379,0.614-4.67,1.842-6.867
		c1.228-2.199,2.928-3.887,5.104-5.062c2.177-1.176,4.427-1.764,6.749-1.764c2.294,0,4.536,0.586,6.728,1.754
		c1.108,0.613,2.103,1.357,2.979,2.234l-0.395,0.395c-0.833-0.848-1.781-1.562-2.848-2.146c-2.104-1.125-4.258-1.688-6.464-1.688
		c-2.22,0-4.378,0.566-6.474,1.697c-2.098,1.133-3.732,2.75-4.907,4.854c-1.177,2.104-1.765,4.303-1.765,6.594
		c0,2.295,0.577,4.48,1.731,6.564c1.152,2.08,2.774,3.699,4.863,4.852c2.089,1.154,4.272,1.732,6.551,1.732s4.462-0.578,6.551-1.732
		c2.089-1.152,3.711-2.775,4.864-4.863C1556.664,728.979,1556.992,728.257,1557.255,727.511z"/>
	<path fill="none" stroke="#000000" stroke-width="2" stroke-miterlimit="10" d="M1593.216,701.034c3.683,0,7.269,0.941,10.76,2.826
		c3.49,1.885,6.226,4.584,8.205,8.098c1.979,3.512,2.968,7.184,2.968,11.008c0,3.799-0.964,7.432-2.893,10.9
		c-1.927,3.473-4.629,6.168-8.104,8.098c-3.478,1.928-7.122,2.893-10.936,2.893c-3.783,0-7.412-0.965-10.888-2.893
		c-3.478-1.93-6.179-4.625-8.108-8.098c-1.928-3.469-2.891-7.102-2.891-10.9c0-3.824,0.978-7.496,2.936-11.008
		c1.957-3.514,4.681-6.213,8.172-8.098C1585.927,701.976,1589.522,701.034,1593.216,701.034z"/>
	<path fill="none" stroke="#000000" stroke-width="2" stroke-miterlimit="10" d="M1584.418,707.356
		c-2.85,1.541-5.073,3.746-6.675,6.617c-1.602,2.873-2.401,5.871-2.401,8.994c0,3.098,0.784,6.062,2.354,8.902
		c1.571,2.842,3.78,5.047,6.628,6.615c2.849,1.572,5.819,2.357,8.914,2.357s6.065-0.785,8.915-2.357
		c2.847-1.568,5.057-3.773,6.627-6.615c1.57-2.84,2.354-5.805,2.354-8.902c0-3.123-0.807-6.121-2.423-8.994
		c-1.618-2.871-3.85-5.076-6.697-6.617c-2.85-1.537-5.774-2.309-8.776-2.309C1590.206,705.048,1587.265,705.819,1584.418,707.356z"
		/>
	<path fill="none" stroke="#000000" stroke-width="2" stroke-miterlimit="10" d="M1593.239,709.251c2.294,0,4.531,0.588,6.716,1.764
		c2.184,1.176,3.894,2.863,5.127,5.062c1.233,2.197,1.852,4.488,1.852,6.867c0,2.381-0.603,4.656-1.808,6.826
		c-1.205,2.168-2.896,3.855-5.071,5.061c-2.177,1.205-4.449,1.809-6.815,1.809c-2.365,0-4.638-0.604-6.813-1.809
		c-2.177-1.205-3.867-2.893-5.073-5.061c-1.204-2.17-1.807-4.445-1.807-6.826c0-2.379,0.613-4.67,1.84-6.867
		c1.228-2.199,2.929-3.887,5.105-5.062C1588.667,709.839,1590.917,709.251,1593.239,709.251z"/>
</g>
<polyline fill="#D18929" points="1430.575,915.064 1395.538,915.064 1413.056,929.629 1395.538,941.953 1431.39,941.953 "/>
<polyline fill="#D18929" points="1612.278,915.064 1647.315,915.064 1629.796,929.629 1647.315,941.953 1611.463,941.953 "/>
<rect x="1425.714" y="892.657" fill="#DF9826" width="191.529" height="35.852"/>
<text transform="matrix(1 0 0 1 1444.6089 917.917)" fill="#FFFFFF" font-family="'HelveticaNeue'" font-size="18">SET UP AN ALERT</text>
<text transform="matrix(1 0 0 1 1498.2153 950.6572)" font-family="'HelveticaNeue'" font-size="16">sign in</text>
<text transform="matrix(1 0 0 1 389.7173 71.8525)" fill="#FFFFFF" font-family="'HelveticaNeue-Bold'" font-size="22">S</text>
<g id="Your_Icon">
	<g>
		<path fill="#414042" d="M156.391,97.354h-11h-4.583l-3.108-7.461l0,0c-0.728-1.71-1.951-2.996-3.367-3.951
			c-1.426-0.939-3.084-1.575-4.941-1.588h-12c-1.873,0.012-3.54,0.671-4.947,1.647c-1.398,0.99-2.588,2.331-3.239,4.087
			l-2.633,7.241l0.069,0.025h-4.25h-11c-2.209,0-4,1.791-4,4s1.791,4,4,4h4v61c-0.001,1.927,0.794,3.691,2.054,4.945
			c1.255,1.261,3.02,2.056,4.946,2.055h43c1.927,0.001,3.691-0.794,4.945-2.055c1.261-1.254,2.056-3.02,2.055-4.945v-61h4
			c2.209,0,4-1.791,4-4S158.6,97.354,156.391,97.354z M114.843,92.139c0.1-0.312,0.494-0.85,1.042-1.223
			c0.538-0.388,1.179-0.574,1.506-0.562h12c0.342-0.013,1.029,0.181,1.611,0.581c0.594,0.384,1.037,0.945,1.156,1.265l0,0
			l2.148,5.154h-21.36L114.843,92.139z M146.391,166.354c-0.001,0.273-0.105,0.509-0.296,0.704c-0.195,0.19-0.431,0.295-0.704,0.296
			h-43c-0.273-0.001-0.509-0.105-0.704-0.296c-0.191-0.195-0.295-0.431-0.296-0.704v-61h45V166.354z"/>
		<path fill="#414042" d="M110.391,160.354c1.657,0,3-1.343,3-3v-43c0-1.657-1.343-3-3-3s-3,1.343-3,3v43
			C107.391,159.011,108.734,160.354,110.391,160.354z"/>
		<path fill="#414042" d="M136.391,160.354c1.657,0,3-1.343,3-3v-43c0-1.657-1.343-3-3-3s-3,1.343-3,3v43
			C133.391,159.011,134.734,160.354,136.391,160.354z"/>
		<path fill="#414042" d="M123.391,160.354c1.657,0,3-1.343,3-3v-43c0-1.657-1.343-3-3-3s-3,1.343-3,3v43
			C120.391,159.011,121.734,160.354,123.391,160.354z"/>
	</g>
</g>
<path fill="#414042" d="M44.391,115.598h17.188L44.391,98.411V115.598z M63.141,121.848h-18.75h-6.25v-25H6.891v17.188l-6.25-6.25
	V90.598h45.312l23.438,23.438v57.812H0.641v-29.688l6.25,6.25v17.188h56.25V121.848z M-0.921,112.473l29.688,29.688l-10.938,10.938
	l-29.688-29.688L-0.921,112.473z M-14.203,121.067l-6.25-5.014c-2.004-2.004-1.223-6.263,0.781-8.268l3.125-3.125
	c2.004-2.004,5.808-2.786,7.812-0.781l5.469,6.25L-14.203,121.067z M33.479,159.348l-13.307-3.906l10.938-10.938l3.652,13.561
	L33.479,159.348z"/>
<path fill="#414042" d="M79.29,10.482l-9.311-9.311C69.229,0.421,68.211,0,67.151,0c-1.062,0-2.078,0.421-2.828,1.171l-2.257,2.257
	c-1.454-1.98-3.795-3.266-6.44-3.266H8c-4.418,0-8,3.582-8,8v63.501c0,4.418,3.582,8,8,8h47.625c4.418,0,8-3.582,8-8V31.804
	L79.29,16.139C80.853,14.576,80.853,12.044,79.29,10.482z M58.02,18.788l3.654,3.654L33.649,50.467l-6.867,3.214l3.214-6.867
	L58.02,18.788z M55.625,71.663H8V8.162h47.625V9.87L23.842,41.653c-0.329,0.328-0.598,0.711-0.795,1.133l-8.189,17.5
	c-0.714,1.523-0.396,3.332,0.795,4.522c0.767,0.769,1.79,1.173,2.829,1.173c0.573,0,1.152-0.123,1.694-0.377l17.5-8.189
	c0.421-0.197,0.805-0.467,1.133-0.795l16.816-16.816V71.663z M67.331,16.784l-3.654-3.653l3.477-3.475l3.652,3.654L67.331,16.784z"
	/>
</svg>
