<?xml version="1.0" encoding="utf-8"?>
<!-- Generator: Adobe Illustrator 16.0.0, SVG Export Plug-In . SVG Version: 6.00 Build 0)  -->
<!DOCTYPE svg PUBLIC "-//W3C//DTD SVG 1.1//EN" "http://www.w3.org/Graphics/SVG/1.1/DTD/svg11.dtd">
<svg version="1.1" id="Your_Icon" xmlns="http://www.w3.org/2000/svg" xmlns:xlink="http://www.w3.org/1999/xlink" x="0px" y="0px"
	 width="100px" height="100px" viewBox="0 0 100 100" enable-background="new 0 0 100 100" xml:space="preserve">
<path fill="#FFFFFF" d="M39.899,94c1.951,3.574,5.742,6,10.101,6c4.359,0,8.148-2.426,10.102-6H39.899z"/>
<path fill="#E19800" d="M61,75c2,0,4-2,4-4c0-17,15-19.309,15-41C80,13.431,66.568,0,50,0C33.431,0,20,13.431,20,30
	c0,21.691,15,24,15,41c0,2,2,4,4,4H61z"/>
<path fill="#FFFFFF" d="M63,80.5c0,1.375-1.125,2.5-2.5,2.5h-21c-1.375,0-2.5-1.125-2.5-2.5l0,0c0-1.375,1.125-2.5,2.5-2.5h21
	C61.875,78,63,79.125,63,80.5L63,80.5z"/>
<path fill="#FFFFFF" d="M63,88.5c0,1.375-1.125,2.5-2.5,2.5h-21c-1.375,0-2.5-1.125-2.5-2.5l0,0c0-1.375,1.125-2.5,2.5-2.5h21
	C61.875,86,63,87.125,63,88.5L63,88.5z"/>
</svg>
